<svg xmlns="http://www.w3.org/2000/svg" xml:space="preserve" width="151.598" height="70">
  <g fill="#bf0d3e">
    <path d="M54.567 44.752c.394-.614 1.09-.92 1.741-.92.782 0 1.4.407 1.4 1.775v4.411h1.905v-4.607c0-1.905-.863-3.126-2.621-3.126-.962 0-1.817.293-2.425.969v-.822h-1.905v7.586h1.905v-5.266m35.505 3.118c-.423.455-.977.764-1.66.764-1.108 0-1.84-.83-1.84-2.41 0-1.432.732-2.392 2.116-2.392.52.016.909.084 1.384.287zm1.904.015v-4.908c-.836-.349-1.817-.692-3.29-.692-2.444 0-4.084 1.287-4.084 3.924 0 2.425 1.416 3.972 3.321 3.972.863 0 1.58-.31 2.263-.944.13.57.537.928 1.22.928.499 0 1.027-.132 1.629-.434V48.41c-.215.097-.475.192-.72.192-.255 0-.339-.179-.339-.717m12.372-2.311v4.444h1.888v-4.72c0-1.89-.975-3.013-2.668-3.013-1.13 0-1.903.3-2.683 1.226-.462-.812-1.252-1.226-2.203-1.226-.928 0-1.726.293-2.393.985v-.838H94.4v7.586h1.889v-5.331c.504-.624 1.09-.855 1.726-.855.928 0 1.35.57 1.35 1.807v4.38h1.89v-5.145c.463-.679 1.068-1.026 1.676-1.026.912 0 1.417.619 1.417 1.726m6.964-1.742c1.124 0 1.905.862 1.905 2.377 0 1.612-.911 2.425-1.888 2.425-.619 0-1.074-.146-1.58-.537V44.5c.473-.44 1.01-.667 1.563-.667zm-3.467-1.4v10.47h1.904v-3.307c.521.407 1.156.586 1.857.586 1.84 0 3.581-1.482 3.581-4.021 0-2.426-1.53-3.875-3.321-3.875-.798 0-1.514.245-2.117.75v-.603h-1.904m-29.639-2.878H76.3v10.464h1.905v-5.283c.508-.675 1.12-.903 1.807-.903.863 0 1.334.554 1.334 1.644v4.542h1.905v-4.705c0-1.807-.797-3.028-2.604-3.028-.961 0-1.822.287-2.442.985v-3.716m63.112 10.464v-4.607c0-1.905-.863-3.126-2.621-3.126-.962 0-1.818.293-2.426.969v-.822h-1.905v7.586h1.905v-5.266c.394-.614 1.091-.92 1.742-.92.781 0 1.4.407 1.4 1.775v4.411h1.905m-95.33-4.526c.049-1.025.798-1.774 1.807-1.774 1.026 0 1.628.668 1.677 1.774zm1.856-3.207c-2.344 0-3.793 1.644-3.793 3.891 0 2.458 1.693 3.989 3.956 3.989 1.146 0 2.056-.184 2.966-.688V47.95c-.833.492-1.701.684-2.64.684-1.234 0-2.148-.75-2.309-1.908h5.213c.375-2.9-1.456-4.44-3.393-4.44m96.514 3.206c.049-1.025.798-1.774 1.807-1.774 1.026 0 1.628.668 1.678 1.774zm1.857-3.207c-2.345 0-3.794 1.644-3.794 3.891 0 2.458 1.693 3.989 3.956 3.989 1.146 0 2.056-.184 2.966-.688V47.95c-.832.492-1.701.684-2.64.684-1.233 0-2.147-.75-2.308-1.908h5.213c.374-2.9-1.457-4.44-3.393-4.44m-75.722-1.49c1.318 0 2.555.406 3.776 1.14v-2.101c-1.28-.63-2.388-.88-3.772-.88-3.598 0-6.337 2.2-6.337 5.606 0 3.405 2.739 5.604 6.337 5.604 1.384 0 2.491-.249 3.772-.88v-2.1c-1.22.733-2.458 1.14-3.776 1.14-2.616 0-4.112-1.752-4.119-3.764.007-2.014 1.503-3.765 4.119-3.765m47.673 5.429c0-1.433.733-2.393 2.116-2.393.521.016.91.084 1.384.287v3.75c-.423.456-.976.765-1.66.765-1.107 0-1.84-.83-1.84-2.41zm3.614 3.012c.13.57.538.928 1.221.928.498 0 1.026-.132 1.628-.434V48.41c-.215.097-.474.192-.72.192-.254 0-.338-.179-.338-.717v-4.908c-.836-.349-1.818-.692-3.29-.692-2.444 0-4.085 1.287-4.085 3.924 0 2.425 1.417 3.972 3.322 3.972.862 0 1.579-.31 2.262-.944m7.346-.619c-1.203 0-1.825-1.054-1.827-2.401.002-1.428.734-2.385 2.115-2.385.52.016.882.084 1.357.287v3.897c-.506.44-1.043.602-1.645.602zm-.302 3.151c-1.221 0-2.149-.358-2.865-1.042v1.756c.747.555 1.723.865 2.88.865 2.443 0 3.836-1.175 3.836-3.633v-6.738c-.836-.349-1.79-.692-3.262-.692-2.444 0-4.085 1.287-4.085 3.924v.008c.004 2.21 1.31 3.948 3.505 3.948.765 0 1.416-.212 1.938-.602v.249c0 1.302-.66 1.957-1.947 1.957m-11.609-35.233c3.981 0 6.255 3.178 6.255 8.96 0 5.234-1.73 8.81-6.148 8.81-2.452 0-4.742-1.018-6.056-3.36l-.003-11.994c1.624-1.366 3.551-2.416 5.952-2.416zm-6.017 17.452c1.03 1.88 3.743 3.883 7.179 3.883 6.431 0 10.279-4.51 10.279-12.376 0-8.548-5.21-12.374-10.371-12.374-2.673 0-5.182 1.153-7.022 2.628V2.804h-5.261V37.36h5l.196-3.372m-22.015 3.883c3.92 0 6.845-2.013 8.115-3.965l.166 3.454h5.03V13.626H97.24l-.007 17.479c-1.34 1.777-3.461 3.202-6.44 3.202-2.454 0-4.404-1.254-4.404-5.213l.033-15.468h-5.26v15.292c0 5.69 2.923 8.953 8.02 8.953M11.006 58.338H8.408v11.63h6.632v-2.17h-4.034v-9.46m24.277 9.492h-1.37v-7.29h1.317c2.564 0 3.976 1.291 3.976 3.637 0 .857-.283 3.655-3.923 3.655zm.215-9.461h-4.183V70h3.897c4.05 0 6.77-2.376 6.77-5.913 0-3.58-2.424-5.718-6.484-5.718m30.017 7.093 1.426-4.147 1.446 4.147zm.293-7.147L61.237 70h2.658l.9-2.493h4.321L70.004 70h2.782l-4.819-11.685h-2.159m52.762 11.654h7.11v-2.17h-4.512v-2.615h3.904v-2.17h-3.904v-2.507h4.511v-2.17h-7.11V69.97m22.046-9.463h3.445v9.462h2.598v-9.462h3.445v-2.17h-9.488v2.17m-57.203 0h3.445v9.462h2.598v-9.462H92.9v-2.17h-9.488v2.17m10.961 9.462h7.11v-2.17H96.97v-2.615h3.904v-2.17H96.97v-2.507h4.511v-2.17h-7.109V69.97m-77.359-.001h7.11v-2.17H19.61v-2.615h3.905v-2.17H19.61v-2.507h4.511v-2.17h-7.109V69.97m32.42-13.325h-2.14l-.804 1.724H43.77V70h7.109v-2.17h-4.511v-2.615h3.904v-2.169h-3.904V60.54h4.511v-2.17H47.93l1.502-1.724m60.451 7.269-3.757-5.577h-2.362v11.63h2.598v-7.432l2.929 4.309h1.125l2.952-4.288v7.412h2.598V58.338h-2.378l-3.705 5.577m26.482 1.919-5.564-7.508h-2.631v11.632h2.598v-7.77l5.76 7.77h2.435V58.326h-2.598v7.508m-58.696-2.089-1.141-.008.022-3.315 1.159.007c1.13.008 1.83.631 1.823 1.67-.007 1.04-.704 1.654-1.863 1.646zm4.57-1.667c0-2.075-1.408-3.71-4.243-3.71h-4.053V70h2.598v-4.192h1.532L80.347 70h2.948l-2.925-4.897c1.121-.456 1.87-1.505 1.87-3.025m-25.026 2.003h-1.066v-3.65h1.011c1.052 0 2.12.395 2.12 1.817 0 1.56-1.098 1.833-2.065 1.833zm.088-5.712H53.55V70h2.598v-3.856h.905c2.339 0 4.931-.83 4.931-3.896 0-2.84-2.002-3.88-4.682-3.88m78.105-34.36c.171-4.726 2.383-7.463 5.946-7.463 3.275 0 5.414 2.845 5.36 7.463zm5.946-10.89c-8.052 0-11.144 6.718-11.144 12.471 0 7.59 4.22 12.282 12.195 12.282 3.134 0 5.82-1.02 7.454-1.92v-4.1c-2.426 1.565-4.97 2.271-7.203 2.271-4.38 0-7.256-2.487-7.29-6.948h16.083c.73-5.216-.979-14.056-10.095-14.056M61.988 9.271l5.204 13.68c-3.98-.104-7.16-.677-9.94-1.448zm-29.05 11.997c8.294 0 12.249 2.835 18.182 4.685L46.278 37.36h4.835l4.03-10.411c1.94.351 4.13.568 6.704.568 2.431 0 4.71-.246 6.81-.718l4.017 10.56h7.16L74.676 24.54c2.028-1.141 3.74-2.596 5.078-4.344-1.137.615-3.202 1.57-5.947 2.184L64.802 0h-6.554l1.868 4.758-6.597 15.543c-5.232-1.888-9.536-4.085-16.612-4.085-10.158 0-17.761 7.301-25.343 7.44 6.592 1.48 13.49-2.388 21.374-2.388"/>
    <path d="M32.799 24.271C19.6 24.271 11.497 33.192 0 30.847c2.895 1.413 6.175 2.1 9.06 2.1 8.033 0 12.125-2.832 20.357-2.832 8.635 0 11.5 4.264 12.538 7.244h.114l3.753-9.04c-1.953-1.598-6.114-4.048-13.023-4.048m17.861-7.597 2.13-5.135c-3.712-2.063-6.615-2.757-10.398-2.743-4.612.016-11.694 1.336-18.037 7.47 2.992-1.728 8.611-3.213 13.925-3.213 4.26 0 8.053.834 12.38 3.621"/>
  </g>
</svg>
