<svg xmlns="http://www.w3.org/2000/svg" xml:space="preserve" width="209.198" height="70">
  <path fill="#191998" d="M0 70h209.198V0H0Z"/>
  <path fill="#fff" d="M41.567 9.621h2.129v9.824h6.368v1.872h-8.497zm15.515 7.954c-.536-.2-1.28-.351-2.094-.351-1.315 0-2.093.518-2.093 1.42v.033c0 .836.778 1.303 1.765 1.303 1.384 0 2.422-.751 2.422-1.854zm-.051 3.742v-1.086c-.624.719-1.575 1.27-2.96 1.27-1.73 0-3.253-.952-3.253-2.723v-.034c0-1.904 1.575-2.84 3.703-2.84 1.108 0 1.817.15 2.527.368v-.218c0-1.22-.796-1.888-2.25-1.888-1.021 0-1.782.217-2.613.551l-.57-1.62c1.003-.434 1.99-.735 3.478-.735 2.699 0 4.014 1.37 4.014 3.726v5.23zm14.016-9.823h-3.098v3.926h3.115c1.523 0 2.492-.768 2.492-1.971 0-1.287-.934-1.955-2.509-1.955m2.543 9.824-2.976-4.077H67.95v4.077h-2.128V9.622h5.399c2.786 0 4.5 1.42 4.5 3.71 0 1.938-1.195 3.108-2.89 3.558l3.27 4.428zm6.563-9.941 1.834-2.74 1.904.819-2.112 1.921zm3.27 4.912c-.138-1.303-.934-2.322-2.318-2.322-1.281 0-2.181.952-2.372 2.322zm-2.042 3.576c1.021 0 1.748-.368 2.475-1.053l1.228 1.053c-.865 1.002-2.059 1.654-3.738 1.654-2.647 0-4.689-1.855-4.689-4.595 0-2.54 1.852-4.611 4.465-4.61 2.907 0 4.378 2.204 4.377 4.76 0 .185-.017.352-.034.552h-6.714c.242 1.437 1.28 2.239 2.63 2.239m9.623-5.847c-1.454 0-2.596.968-2.596 2.439 0 1.47 1.16 2.456 2.596 2.456 1.454 0 2.682-.986 2.682-2.44 0-1.486-1.228-2.455-2.682-2.455m-.173 10.007c-1.506 0-2.907-.367-4.084-1.052l.779-1.52c.969.584 2.007.935 3.253.935 1.869 0 2.89-.935 2.89-2.706v-.686c-.762.953-1.713 1.621-3.219 1.62-2.145 0-4.153-1.52-4.153-4.142 0-2.624 2.025-4.161 4.154-4.161 1.54 0 2.491.685 3.2 1.504v-1.32h2.094v7.018c0 3.124-1.765 4.51-4.914 4.51m6.808-11.528h2.094v8.822h-2.094zm-.087-1.353V9.223h2.25v1.921zm8.36 2.941c-1.678 0-2.751 1.27-2.751 2.823 0 1.57 1.159 2.858 2.785 2.858 1.696 0 2.77-1.27 2.77-2.824 0-1.57-1.16-2.857-2.804-2.857m0 7.435c-2.786 0-4.845-2.055-4.845-4.578 0-2.54 2.076-4.628 4.88-4.628 2.803 0 4.862 2.055 4.862 4.595 0 2.523-2.076 4.611-4.897 4.611m8.301-.2h-2.094v-8.822h2.094v1.37c.589-.836 1.436-1.554 2.855-1.554 2.06 0 3.254 1.337 3.254 3.392v5.614h-2.094v-5.012c0-1.37-.71-2.156-1.956-2.156-1.21 0-2.059.819-2.059 2.189zm-89.86 32.858c-9.95 0-16.795-6.983-16.795-16.431v-.091c0-9.082 7.074-16.522 16.75-16.522 5.75 0 9.219 1.552 12.55 4.382l-4.427 5.34c-2.464-2.054-4.655-3.241-8.352-3.241-5.112 0-9.173 4.518-9.173 9.95v.09c0 5.843 4.016 10.133 9.675 10.133 2.556 0 4.838-.639 6.618-1.917v-4.564h-7.074v-6.07H38v13.875c-3.287 2.784-7.805 5.066-13.647 5.066m31.591-18.211c-4.61 0-7.44 2.784-7.44 8.626v9.037h-6.937V29.167h6.938v4.929c1.414-3.377 3.696-5.568 7.804-5.386v7.257zm15.681 7.805c-1.186-.548-2.738-.913-4.427-.913-2.967 0-4.792 1.186-4.792 3.377v.091c0 1.872 1.552 2.967 3.788 2.967 3.24 0 5.431-1.78 5.431-4.29zm-.137 9.858v-2.647c-1.689 1.87-4.016 3.103-7.393 3.103-4.61 0-8.398-2.647-8.398-7.485v-.091c0-5.34 4.062-7.804 9.858-7.804 2.464 0 4.244.41 5.979 1.004v-.411c0-2.875-1.78-4.473-5.249-4.473-2.647 0-4.518.502-6.755 1.324l-1.734-5.294c2.693-1.187 5.34-1.963 9.493-1.963 7.577 0 10.908 3.925 10.908 10.543V53.63zm25.871 0V39.983c0-3.286-1.552-4.974-4.199-4.974s-4.336 1.688-4.336 4.974V53.63h-6.937V29.167h6.937v3.468c1.598-2.053 3.652-3.925 7.166-3.925 5.248 0 8.306 3.47 8.306 9.083V53.63zm28.295-12.277c0-4.062-2.693-6.755-5.933-6.755-3.24 0-5.979 2.647-5.979 6.755v.09c0 4.063 2.738 6.756 5.979 6.756 3.24 0 5.933-2.693 5.933-6.755zm-.091 12.277v-3.515c-1.689 2.283-4.016 3.971-7.622 3.971-5.705 0-11.136-4.472-11.136-12.642v-.091c0-8.17 5.34-12.643 11.136-12.643 3.697 0 5.979 1.689 7.622 3.652v-12.05h6.937V53.63z"/>
  <path fill="#ffc94f" d="M38 59.39s147.698-2.799 147.514.35c-.213 3.638-147.515-.35-147.515-.35"/>
  <path fill="#fff" d="M150.507 20.392h12.501l-.019 6.942h-12.5zm25.651 33.694c-3.424 0-7.257-1.141-10.498-3.697l2.967-4.564c2.647 1.917 5.43 2.921 7.713 2.921 2.008 0 2.921-.73 2.921-1.826v-.09c0-1.507-2.373-2.01-5.066-2.83-3.423-1.004-7.303-2.602-7.303-7.349v-.091c0-4.975 4.017-7.759 8.946-7.759 3.103 0 6.481 1.05 9.129 2.83l-2.648 4.792c-2.42-1.415-4.838-2.282-6.618-2.282-1.688 0-2.556.73-2.556 1.689v.09c0 1.37 2.328 2.01 4.975 2.922 3.423 1.141 7.394 2.784 7.394 7.257v.091c0 5.431-4.062 7.896-9.356 7.896m20.098-.046c-4.245 0-7.12-1.688-7.12-7.347V35.1h-2.92v-5.934h2.92v-6.253h6.938v6.253h5.75V35.1h-5.75v10.452c0 1.597.684 2.373 2.236 2.373a7.06 7.06 0 0 0 3.423-.867v5.568c-1.46.866-3.149 1.415-5.477 1.415m-48.333-33.636v33.32l-6.942-.032V20.375zm2.55 12.85h12.5l-.018 6.942h-12.5zm-.036 13.545h12.5l-.018 6.942h-12.5z"/>
</svg>
