<svg xmlns="http://www.w3.org/2000/svg" xml:space="preserve" width="160" height="70" viewBox="0 0 160 70">
  <title>Moselle, l’Eurodépartement.</title>
  <path fill="#254aa5" d="M91.15961223 45.9854652c-23.95952309 6.29245288-55.77806088 5.10050199-83.54920731.6863518v23.32818125h144.37538291V49.50106517c-10.97382473-4.56609058-33.01311402-10.81924835-60.8261756-3.51559997"/>
  <path fill="#00a650" d="M-.00000495 42.99405985c29.41368111 5.43320045 64.97835216 7.49226386 91.15935651.61824436 40.26436182-10.57299835 68.43633011 7.2643506 68.43633011 7.2643506V-4.7e-7H-.00000495Z"/>
  <g fill="#fff">
    <path d="m12.46439544 14.65392215 7.10193275 21.8113912h4.97213654l7.24077566-21.4944108v23.58490817h5.69778612V7.30574153H30.2965062l-7.36127837 21.97905018-7.14122786-21.97905018H7.61014425v31.2500692h4.8542512zm36.27067441 6.29245288c.90116492-1.46439692 2.13503095-2.1952855 3.70159542-2.1952855 1.57704194 0 2.81614802.73088858 3.71993563 2.1952855.90116758 1.46439665 1.35436874 3.45534755 1.35436874 5.9754722 0 5.50393139-1.70540473 8.2545872-5.1162195 8.2545872-1.55084431 0-2.77423289-.7387476-3.6701604-2.21624253-.89592753-1.4774952-1.34389129-3.47630513-1.34389129-5.99642979 0-2.54632148.45058379-4.55299043 1.3543714-6.01738708m3.56013248 18.13598968c3.59681023 0 6.41819831-1.07668424 8.46416158-3.23005486 2.04596326-2.15337035 3.0676362-5.13193782 3.0676362-8.93046261 0-3.7173148-1.01905291-6.65920692-3.05715609-8.82567582-2.04072587-2.16908866-4.81757877-3.25101323-8.33317875-3.25101323-3.50511986 0-6.27673536 1.08192457-8.31483854 3.25101323-2.03810584 2.1664689-3.05977879 5.12407906-3.05977879 8.8675907 0 3.70159675 1.01381286 6.64610836 3.03882122 8.83615433 2.02762572 2.18742647 4.75732343 3.28244826 8.19433317 3.28244826m29.29186706-2.03679396c1.71850487-1.35960986 2.5777573-3.12788863 2.5777573-5.31007585 0-1.66087221-.50559641-3.02048207-1.51417187-4.07359031-1.01119284-1.0583475-2.8056679-2.09835746-5.38604525-3.12526887l-1.72636496-.69945249c-1.81805267-.73088858-2.72707767-1.62419687-2.72707767-2.6799246 0-1.60585933 1.231246-2.40747884 3.69111797-2.40747884 1.56394444 0 3.53655754.43748524 5.91521926 1.30983596v-4.39057046c-2.47296946-.55013132-4.60538304-.82519685-6.39723808-.82519685-2.86330322 0-5.08740451.61038374-6.67754659 1.82591143-1.59275944 1.21814772-2.38913917 2.92617407-2.38913917 5.1214593 0 1.57704273.46892133 2.89735748 1.406764 3.96880352.9326026 1.0688263 2.491307 2.06954114 4.67087577 2.99690501l2.00666815.84615416c2.00404813.84353439 3.01000356 1.83115095 3.01000356 2.95499013 0 1.74732147-1.21814851 2.61967245-3.65182285 2.61967245-2.08526104 0-4.60014564-.64967885-7.54203643-1.94379703v4.58180676c2.70088005.8461531 5.3755678 1.26792188 8.02143521 1.26792188 2.75589534 0 4.99309677-.6811152 6.71160165-2.0381053m15.69157375-18.29474322c2.42057686 0 3.63086529 1.97785262 3.63086529 5.9335576h-7.90354987c.38771107-3.95570498 1.81281261-5.9335576 4.27268458-5.9335576m9.46749432 14.63086956c-2.50178711.97189825-4.74684597 1.45653763-6.74041664 1.45653763-4.2124319 0-6.51774345-2.20838351-6.918552-6.62777056h13.65896864c0-4.63158067-.7413671-8.01619728-2.22672132-10.15646935-1.48535422-2.14027234-3.8378183-3.20909862-7.06001495-3.20909862-3.19600166 0-5.76851892 1.09502311-7.71231702 3.28244932-1.94641546 2.19004597-2.91831318 5.07692492-2.91831318 8.66587587 0 3.80376405 1.06096806 6.80066906 3.18814158 8.99595455 1.27577851 1.31507549 2.83448556 2.22934108 4.66563572 2.755894 3.56275517-.91426453 7.59180899-1.69492674 12.06358917-2.19266466zm10.22589294 2.40302532V5.2157671h-5.9361795v30.76281112c1.90712301-.1231246 3.88759354-.18861655 5.9361795-.1938558m11.51005287-30.56790758h-5.93617683v30.71041773c1.9254579.10478679 3.90331105.26196724 5.93617683.48463937zm14.0377663 13.53401269c2.41795417 0 3.63088125 1.97785262 3.63088125 5.9335576h-7.90354987c.38771107-3.95570498 1.81018726-5.9335576 4.27266862-5.9335576m1.44343642 20.3312765c2.52538865 0 5.20268578-.43486627 8.0240712-1.30721672v-4.39319022c-2.5017951.97189825-4.74685395 1.45653763-6.74041664 1.45653763-4.21244786 0-6.51775409-2.20838351-6.918552-6.62777056h13.65896864c0-4.63158067-.74137508-8.01619728-2.22673196-10.15646935-1.48535688-2.14027234-3.83782363-3.20909862-7.06000696-3.20909862-3.19600965 0-5.76853223 1.09502311-7.71231702 3.28244932-1.94641547 2.19004597-2.91831585 5.07692492-2.91831585 8.66587587 0 3.80376405 1.06358809 6.80066906 3.18814158 8.99595455.8933075.92212462 1.9306953 1.63991465 3.09906858 2.17170816 1.60061155.32483943 3.22745.6889737 4.88306886 1.09502232.24101606.01048011.47679206.02620029.72302157.02620029"/>
    <path d="M14.47918702 53.89320711h2.69040259v8.84925262h4.53203286v1.76042002h-7.22243545zm6.58192484 2.12743419v-2.83186553h2.69040525v2.44939452c0 1.38056636-1.17099331 2.5096472-2.69040525 2.5096472V57.0763693c.31960096-.01308685.55799167-.07335017.72564958-.21743048.16766057-.14932303.26458834-.38247368.27768582-.72041219v-.11788534zm4.36437495-2.12743419h6.88711964v1.76042002h-4.19671704v2.58299736h3.44486983v1.58489936h-3.44486983v2.92093588h4.53203286v1.76042002h-7.22243546zm13.79021747 9.11200561h-.16766057c-.45844122.99809535-1.39366385 1.6739697-2.4677294 1.6739697-1.53512945 0-2.24505886-1.08716303-2.24505886-2.48082954v-5.64801355h2.69302262v4.76780354c0 .52655399-.02881766 1.24696617.65491679 1.24696617.6130043 0 1.07406554-.6601595 1.36484885-1.15789583v-4.85687388h2.69040525v7.95070507h-2.69040525zm7.39009602-4.95956306h.16765791c.46106125-.99809535 1.39366651-1.6739697 2.46773206-1.6739697h.30650082V58.868227c-.31960096-.146703-.66801693-.20695568-1.01643289-.20695568-.73874707 0-1.3543714.3091235-1.75779999.98237783v4.85687123h-2.69040259v-7.95070507h2.6904026zm7.97663937 5.04784606c1.08716303 0 1.35175137-1.71588484 1.35175137-2.56727985 0-.85139235-.26458834-2.56989723-1.35175137-2.56989723-1.07406555 0-1.33865389 1.71850488-1.33865389 2.56989723 0 .851395.26458834 2.56727985 1.33865389 2.56727985m-4.19671439-2.56727985c0-1.45391654.61300164-4.15479925 4.19671439-4.15479925 3.58109272 0 4.20981187 2.70088271 4.20981187 4.15479925 0 1.45129916-.62871915 4.15218187-4.20981187 4.15218187-3.58371275 0-4.19671439-2.7008827-4.19671439-4.15218187"/>
    <path d="M65.38203913 58.57351233c-.69421456-.64443933-1.35175137-.96665766-1.97523313-.96665766-1.28364125 0-1.92546055 1.03477043-1.92546055 3.1043113 0 1.8206727.57108916 2.7296977 1.71588484 2.7296977.74398713 0 1.47225674-.42700619 2.18480884-1.2836386zm0 5.9283194v-1.46177662c-.54489419 1.0924031-1.36746888 1.63991465-2.46511203 1.63991465-.89069012 0-1.59014208-.34055854-2.10097855-1.02429298-.50821645-.68373444-.7649447-1.61633704-.7649447-2.80042784 0-1.29673875.28816594-2.33936927.86711253-3.12527153.57894658-.79113967 1.34127125-1.1840908 2.28435397-1.1840908.87496995 0 1.60323956.35365602 2.17956878 1.06096806v-4.42200761h1.34651131v11.31698467zm5.5550145-9.19583589 1.64253467-2.30007149h1.5508443l-2.18480617 2.3000715zm-.68111442 4.46654012h3.26149176c0-1.44867647-.51083648-2.17432606-1.53774948-2.17432606-1.0321504 0-1.60585694.72564959-1.72374228 2.17432606m4.57656538 4.47964027c-.89854755.28554591-1.66872965.42962622-2.30793157.42962622-1.08978306 0-1.9778505-.38247102-2.666825-1.14479569-.68635447-.76232466-1.02953037-1.74994256-1.02953037-2.96285101 0-1.17885075.30126076-2.1481311.90640497-2.90259568.60776425-.75446458 1.3831864-1.1316982 2.32626912-1.1316982.8933075 0 1.58490202.33531848 2.0721609 1.0033354.48725887.66801427.73350967 1.61895708.73350967 2.85282311l-.0078468.43486362h-4.66301568c.19385554 1.85210772 1.055728 2.77423287 2.58037734 2.77423287.55798901 0 1.24434348-.15718045 2.05644072-.47154136zm3.6908573-1.60664427c.69159452.64967939 1.34913134.97451775 1.97523312.97451775 1.28887866 0 1.93331798-1.03477043 1.93331798-3.10169127 0-1.82591276-.57108915-2.74017782-1.71588484-2.74017782-.74922718 0-1.48011682.42700619-2.19266626 1.2836386zm-1.34127126 4.68659329v-10.6149127h1.34127126v1.46439666c.55013158-1.08978306 1.37270894-1.6346746 2.47296945-1.6346746.8880701 0 1.58752205.34055855 2.09835852 1.02429299.51083648.68373444.76756473 1.61633704.76756473 2.80304787 0 1.28887866-.2907833 2.33150918-.86973255 3.12002881-.57632656.79114233-1.33865123 1.1867135-2.28435398 1.1867135-.87496995 0-1.60323956-.35365603-2.18480617-1.06096807v3.71207554zm12.39157157-4.58678482v-2.0119082l-.45058379-.01572018c-.733507 0-1.32817377.146703-1.78137493.44010633-.45582384.2960207-.68111707.68111442-.68111707 1.15789317 0 .34055854.11264795.62610179.34055854.85925244.22529322.23577068.50297639.35365602.83043744.35365602.55798901 0 1.13955563-.26196565 1.74207981-.78328224m.19647557.76756473c-.80161978.77804218-1.57704193 1.16837328-2.32102906 1.16837328-.6130043 0-1.12122075-.20171296-1.52464934-.60514421-.40342859-.40342859-.60514421-.91426506-.60514421-1.5298894 0-.85139234.3379385-1.50630913 1.01643289-1.95951295.67849438-.45844387 1.65301213-.68635447 2.91831585-.68635447h.3195983v-.93784266c0-.9037876-.44010367-1.3543714-1.32031368-1.3543714-.70731204 0-1.47225674.22791326-2.29483409.68635447v-1.16837328c.9037876-.38509105 1.74994256-.58156662 2.54108223-.58156662.82519738 0 1.43296162.19647557 1.82591275.58942404.39295114.39295114.5894267 1.00071538.5894267 1.8285328v3.52607742c0 .80685984.23577068 1.21028843.70731205 1.21028843.06025002 0 .14670033-.01048012.25934562-.028815l.09692777.78066221c-.30650083.1519404-.6418193.23053062-1.0085728.23053062-.6261018 0-1.02691301-.3903311-1.19981098-1.16837328m3.88838087.98892923v-7.78304716h1.34127126v1.46177663c.52917401-1.08978306 1.3019788-1.6346746 2.31579166-1.6346746.13622288 0 .27768316.01308685.42700619.0366751v1.32031633c-.23053063-.08383028-.43486628-.1231254-.6130043-.1231254-.84877232 0-1.5587044.52917402-2.12979355 1.59014208v5.13193702zm7.92529478.17918604c-.6811144 0-1.21290845-.20695568-1.5927621-.61562433-.38247102-.41128868-.57108916-.98237517-.57108916-1.71326481v-4.57394801h-.92736255v-1.06096806h.92736255v-1.4120014l1.33865388-.13622288v1.54822428h1.93593801v1.06096806h-1.935938v4.31459972c0 1.01905292.4191461 1.52726937 1.2548236 1.52726937.17551799 0 .39295113-.03143503.64443932-.09168771v.97451775c-.41128868.11788534-.77018476.17813802-1.07406555.17813802m3.83991433-4.90952716h3.26149176c0-1.4460591-.5134565-2.17170869-1.53774682-2.17170869-1.0321504 0-1.6058596.72564958-1.72374494 2.1717087m4.57656804 4.4796376c-.90116758.28816328-1.6687323.42962622-2.3105516.42962622-1.08716303 0-1.97785316-.379851-2.66420497-1.14217566-.6889745-.76232467-1.03215306-1.74994256-1.03215306-2.96285102 0-1.18147077.30388345-2.14813109.90902766-2.9052157.60514422-.75446458 1.38056637-1.1316982 2.32626912-1.1316982.8933075 0 1.58490202.33531848 2.0721609 1.0033354.48725887.6706343.73088698 1.61895708.73088698 2.8528231l-.00524006.43748365h-4.66301835c.19385554 1.84949036 1.05310797 2.77161285 2.58037734 2.77161285.55799167 0 1.24172611-.15718045 2.05644338-.47154136zm2.34801137.25070351v-7.78304716h1.3412739v1.46177663c.65229676-1.08978306 1.49321166-1.6346746 2.51750463-1.6346746.99023527 0 1.66349225.54489154 2.02238567 1.6346746.6365819-1.0924031 1.46439665-1.64253202 2.47820951-1.64253202.65491945 0 1.16051586.204333 1.51941194.60776158.35889342.40343125.53703144.96928035.53703144 1.69492994v5.66111103h-1.3465113V59.0607712c0-.88806743-.33531849-1.3307938-1.00071538-1.3307938-.6942119 0-1.42248151.51869657-2.18742621 1.553467v5.21838733h-1.34651131V59.0607712c0-.89068746-.34055588-1.33865122-1.02167295-1.33865122-.67587435 0-1.40152394.52131393-2.17170603 1.56132442v5.21838733zm13.86225894-4.73034112h3.26149176c0-1.4460591-.5134565-2.17170869-1.53774948-2.17170869-1.0321504 0-1.60585694.72564958-1.72374228 2.1717087m4.57656538 4.4796376c-.90116492.28816328-1.66872964.42962622-2.31054894.42962622-1.0871657 0-1.97785316-.379851-2.66420763-1.14217566-.68635447-.76232467-1.02953037-1.74994256-1.02953037-2.96285102 0-1.18147077.30126076-2.14813109.90640497-2.9052157.60514422-.75446458 1.38056903-1.1316982 2.32626912-1.1316982.89331015 0 1.58490202.33531848 2.0721609 1.0033354.48725887.6706343.73088964 1.61895708.73088964 2.8528231l-.00524006.43748365h-4.66301569c.19385554 1.84949036 1.05310797 2.77161285 2.58037734 2.77161285.55798901 0 1.24172345-.15718045 2.05644072-.47154136zm2.34801402.25070351v-7.78304716h1.34127126v1.46177663c.70731204-1.08978306 1.57442456-1.6346746 2.60132693-1.6346746.63920725 0 1.15004638.21481312 1.5325174.6418193.3798643.4270062.5710865 1.00333541.5710865 1.72374494v5.5903809h-1.3412686V59.3698947c0-.57632921-.08120759-.99023792-.24101605-1.23386602-.1624152-.24887083-.42963154-.37199357-.80162244-.37199357-.819952 0-1.59537416.56846913-2.32102374 1.70016733v5.03762928zm10.87296028.17918604c-.68112772 0-1.21292708-.20695568-1.59276477-.61562433-.38247102-.41128868-.5710865-.98237517-.5710865-1.71326481v-4.57394801h-.92738383v-1.06096806h.92738383v-1.4120014l1.3412686-.13622288v1.54822428h1.93068199v1.06096806h-1.930682v4.31459972c0 1.01905292.4165181 1.52726937 1.25218761 1.52726937.17552864 0 .3903444-.03143503.64444731-.09168771v.97451775c-.41127803.11788534-.7701821.17813802-1.07405224.17813802"/>
  </g>
</svg>
